<svg width="34" height="31" viewBox="0 0 34 31" fill="none" xmlns="http://www.w3.org/2000/svg">
<path d="M32.7847 0.41791C32.2147 -0.0654501 31.3195 -0.13461 30.3938 0.23703H30.3923C29.4187 0.62767 2.83389 12.0307 1.75165 12.4966C1.55481 12.565 -0.164305 13.2064 0.0127747 14.6352C0.170855 15.9234 1.55253 16.4569 1.72125 16.5185L8.47993 18.8327C8.92833 20.3253 10.5813 25.8323 10.9469 27.0088C11.1749 27.7422 11.5465 28.7059 12.1979 28.9042C12.7694 29.1246 13.3379 28.9232 13.7057 28.6344L17.8378 24.8018L24.5083 30.004L24.6672 30.0989C25.1201 30.2996 25.5541 30.3999 25.9683 30.3999C26.2883 30.3999 26.5953 30.3399 26.8887 30.2198C27.8881 29.8094 28.2878 28.8571 28.3296 28.7492L33.3122 2.85067C33.6162 1.46747 33.1936 0.76371 32.7847 0.41791ZM14.4406 19.7584L12.1606 25.8384L9.88061 18.2384L27.3606 5.31839L14.4406 19.7584Z" fill="#F5F5F5"/>
</svg>
